<svg width="381" height="381" viewBox="0 0 381 381" fill="none" xmlns="http://www.w3.org/2000/svg">
<path fill-rule="evenodd" clip-rule="evenodd" d="M299.478 346.352C385.435 286.165 406.325 167.691 346.138 81.7339C285.95 -4.22276 167.476 -25.1131 81.5192 35.0745C-4.43764 95.2621 -25.3275 213.736 34.8598 299.693C95.0476 385.65 213.521 406.54 299.478 346.352ZM89.9222 74.0816C93.8034 70.7427 97.8851 67.5629 102.168 64.564C171.838 15.7803 267.864 32.7126 316.648 102.383C357.939 161.353 352.149 239.203 307.15 291.308L89.9222 74.0816ZM38.7549 164.464C42.2141 144.469 49.6 125.158 60.6913 107.782L145.824 272.912L38.7549 164.464ZM163.824 342.386C124.985 335.555 88.7551 313.899 64.3493 279.044C50.5794 259.379 42.0466 237.613 38.4565 215.403L163.824 342.386ZM278.829 316.863C261.095 329.281 241.652 337.438 221.716 341.554L131.505 166.576L280.562 315.633C279.989 316.046 279.411 316.456 278.829 316.863Z" fill="white"/>
</svg>
