<svg width="381" height="381" viewBox="0 0 381 381" fill="none" xmlns="http://www.w3.org/2000/svg">
<path fill-rule="evenodd" clip-rule="evenodd" d="M34.8598 299.693C95.0475 385.65 213.521 406.54 299.478 346.352C385.435 286.164 406.325 167.691 346.138 81.7338C285.95 -4.22306 167.476 -25.113 81.5191 35.0744C-4.43785 95.2622 -25.328 213.736 34.8598 299.693ZM307.13 90.1367C310.469 94.018 313.649 98.0996 316.648 102.383C365.432 172.053 348.499 268.079 278.829 316.863C219.859 358.154 142.009 352.364 89.9042 307.365L307.13 90.1367ZM216.748 38.9695C236.743 42.4287 256.054 49.8146 273.43 60.9059L108.3 146.038L216.748 38.9695ZM38.8264 164.038C45.6572 125.2 67.3128 88.9697 102.168 64.5639C121.833 50.794 143.599 42.2612 165.809 38.6711L38.8264 164.038ZM64.3492 279.044C51.9312 261.309 43.7737 241.867 39.6579 221.93L214.636 131.719L65.5793 280.777C65.1658 280.203 64.7562 279.625 64.3492 279.044Z" fill="white"/>
</svg>
