<svg width="647" height="647" viewBox="0 0 647 647" fill="none" xmlns="http://www.w3.org/2000/svg">
<path fill-rule="evenodd" clip-rule="evenodd" d="M323.014 46.7277C476.004 46.3257 600.353 170.023 600.755 323.013C601.157 476.003 477.459 600.353 324.469 600.755C171.479 601.157 47.1303 477.459 46.7279 324.469C46.3259 171.479 170.023 47.1297 323.014 46.7277ZM301.744 547.201C309.174 547.923 316.709 548.288 324.331 548.268C448.334 547.942 548.594 447.154 548.268 323.151C547.992 218.193 475.743 130.248 378.363 105.906L301.744 547.201ZM164.882 482.406C185.789 503.338 210.803 520.16 238.61 531.563L201.487 263.252L164.882 482.406ZM164.629 165.324C124.064 206.068 99.0517 262.295 99.2147 324.331C99.3068 359.333 107.405 392.442 121.768 421.932L164.629 165.324ZM323.151 99.2144C291.586 99.2974 261.561 105.893 234.34 117.721L273.675 402.034L326.25 99.2262C325.219 99.215 324.186 99.2117 323.151 99.2144Z" fill="black"/>
</svg>
