<svg width="512" height="512" viewBox="0 0 512 512" fill="none" xmlns="http://www.w3.org/2000/svg">
<path fill-rule="evenodd" clip-rule="evenodd" d="M78.9929 380.065C147.473 477.865 282.268 501.633 380.067 433.153C477.866 364.673 501.634 229.878 433.155 132.079C364.675 34.2798 229.879 10.512 132.08 78.9912C34.2814 147.471 10.5133 282.266 78.9929 380.065ZM388.774 141.639C392.573 146.055 396.19 150.699 399.603 155.572C455.107 234.841 435.842 344.096 356.574 399.601C289.479 446.581 200.904 439.993 141.621 388.794L388.774 141.639ZM285.94 83.4229C308.689 87.3587 330.661 95.7621 350.43 108.381L162.55 205.242L285.94 83.4229ZM83.506 225.722C91.2779 181.533 115.917 140.311 155.574 112.543C177.949 96.8764 202.713 87.1681 227.983 83.0834L83.506 225.722ZM112.545 356.572C98.4163 336.394 89.1348 314.273 84.4521 291.59L283.536 188.951L113.945 358.544C113.474 357.891 113.008 357.233 112.545 356.572Z" fill="black"/>
</svg>
