<svg width="381" height="381" viewBox="0 0 381 381" fill="none" xmlns="http://www.w3.org/2000/svg">
<path fill-rule="evenodd" clip-rule="evenodd" d="M34.9795 299.598C95.1673 385.555 213.641 406.445 299.598 346.257C385.555 286.069 406.445 167.596 346.257 81.6388C286.07 -4.31803 167.596 -25.2079 81.6389 34.9795C-4.3181 95.1672 -25.2082 213.641 34.9795 299.598ZM307.25 90.0418C310.589 93.9231 313.769 98.0047 316.768 102.288C365.551 171.958 348.619 267.984 278.949 316.768C219.979 358.059 142.128 352.269 90.0239 307.27L307.25 90.0418ZM216.868 38.8745C236.862 42.3338 256.174 49.7196 273.55 60.8109L108.419 145.943L216.868 38.8745ZM38.9461 163.943C45.777 125.105 67.4326 88.8747 102.288 64.4689C121.953 50.699 143.719 42.1662 165.929 38.5761L38.9461 163.943ZM64.469 278.949C52.051 261.214 43.8934 241.772 39.7777 221.835L214.755 131.625L65.699 280.682C65.2856 280.108 64.8759 279.53 64.469 278.949Z" fill="black"/>
</svg>
