<svg width="381" height="381" viewBox="0 0 381 381" fill="none" xmlns="http://www.w3.org/2000/svg">
<path fill-rule="evenodd" clip-rule="evenodd" d="M189.999 0.499279C294.933 0.223547 380.222 85.0656 380.498 189.999C380.773 294.933 295.931 380.222 190.998 380.498C86.0643 380.774 0.775251 295.931 0.499256 190.998C0.223525 86.0641 85.0656 0.775011 189.999 0.499279ZM175.411 343.766C180.507 344.262 185.675 344.512 190.903 344.498C275.955 344.275 344.721 275.145 344.498 190.094C344.309 118.105 294.754 57.7847 227.963 41.0891L175.411 343.766ZM81.5391 299.324C95.8788 313.681 113.036 325.219 132.108 333.04L106.646 149.01L81.5391 299.324ZM81.366 81.8426C53.5429 109.788 36.3873 148.353 36.4991 190.903C36.5623 214.91 42.1165 237.619 51.9681 257.846L81.366 81.8426ZM190.094 36.4992C168.444 36.556 147.85 41.0798 129.18 49.1925L156.159 244.198L192.219 36.5072C191.512 36.4995 190.803 36.4973 190.094 36.4992Z" fill="black"/>
</svg>
